<svg height="512pt" viewBox="0 0 512 512" width="512pt" xmlns="http://www.w3.org/2000/svg" xmlns:xlink="http://www.w3.org/1999/xlink"><linearGradient id="a" gradientUnits="userSpaceOnUse" x1="0" x2="512" y1="256" y2="256"><stop offset="0" stop-color="#00f2fe"/><stop offset=".0208" stop-color="#03effe"/><stop offset=".2931" stop-color="#24d2fe"/><stop offset=".5538" stop-color="#3cbdfe"/><stop offset=".7956" stop-color="#4ab0fe"/><stop offset="1" stop-color="#4facfe"/></linearGradient><path d="m482.933594 242.605469c-9.875-24.933594-20.019532-50.550781-26.292969-76.707031.136719-3.3125-.546875-6.691407-2.148437-9.847657-.589844-2.960937-1.144532-5.925781-1.617188-8.898437-.152344-.953125-.375-1.894532-.660156-2.816406-12.75-40.847657-38.738282-77.554688-73.1875-103.363282-35.410156-26.53125-77.484375-40.679687-121.714844-40.957031-.105469 0-.207031-.015625-.3125-.015625h-.996094c-.109375 0-.210937.015625-.316406.015625-86.558594.550781-163.910156 55.726563-192.632812 137.515625-.464844 1.328125-.789063 2.699219-.96875 4.097656-4.226563 33.140625-16.71875 61.632813-29.941407 91.796875-15.804687 36.042969-32.144531 73.308594-32.144531 117.574219 0 11.046875 8.953125 20 20 20h.921875c.152344 0 .425781.003906.8125.003906 3.570313 0 16.707031-.125 31.617187-1.792968 11.976563-1.34375 22.171876-3.351563 30.71875-6.046876 9.667969 45.566407 25.796876 83.902344 38.128907 108.835938h-27.199219c-11.046875 0-20 8.953125-20 20s8.953125 20 20 20h323c11.046875 0 20-8.953125 20-20s-8.953125-20-20-20h-29.503906c1.019531-2.46875 2.101562-5.121094 3.242187-7.96875.609375-1.171875 1.105469-2.410156 1.472657-3.703125.132812-.335937.261718-.65625.398437-1 1.914063-4.859375 1.773437-10.015625.023437-14.53125-5.125-70.996094-64.269531-127.265625-136.425781-127.792969-.128906-.003906-.261719-.003906-.390625-.003906h-.632812c-.132813 0-.261719 0-.394532.003906-53.4375.390625-99.734374 31.359375-122.242187 76.234375-9.949219-31.101562-17.875-68.144531-17.875-107.238281 0-11.046875-8.953125-20-20-20-11.042969 0-20 8.953125-20 20 0 12.566406.710937 24.894531 1.980469 36.902344-3.804688 1.796875-12.058594 4.65625-28.375 6.511718-2.65625.300782-5.257813.546876-7.742188.746094 4.019532-27.710937 15.363282-53.589844 27.242188-80.675781 9.128906-20.828125 18.457031-42.132813 25.160156-65.4375 1.238281-1.4375 2.289062-3.070313 3.101562-4.886719 11.988282-26.824218 38.609376-44.160156 67.816407-44.160156 20.070312 0 38.835937 7.699219 52.847656 21.6875.132813.132812.269531.273438.40625.417969 10.078125 10.40625 24.023437 16.40625 39.261719 16.882812 16.578125.527344 31.8125-5.472656 42.855468-16.882812.140626-.144531.277344-.285157.417969-.421875 14.003907-13.984375 32.769531-21.683594 52.839844-21.683594 25.832031 0 49.597656 13.421875 63.128906 35.324219 6.796875 30.574219 18.117188 59.199219 29.132813 87.011719 10.117187 25.546874 19.816406 50.035156 24.042968 72.222656-2.777343-.289063-5.707031-.632813-8.707031-1.039063-12.738281-1.742187-20.890625-3.871093-25.96875-5.648437 1.285157-10.757813 2.214844-22.757813 2.214844-36.871094 0-11.046875-8.957031-20-20-20-11.046875 0-20 8.953125-20 20 0 17.386719-1.539063 30.945312-3.847656 45.960938-1.558594 10.152343 4.816406 19.683593 14.496093 22.320312 10.667969 6.449219 26.136719 10.921875 47.691407 13.867188 17.773437 2.429687 33.195312 2.832031 33.84375 2.847656.164062.003906.324219.003906.488281.003906h2c11.046875 0 20-8.953125 20-20 0-35.011719-14.117188-70.65625-29.066406-108.394531zm-323.933594 212.210937c0-53.832031 43.707031-97.644531 97.5-97.816406 52.476562.167969 95.34375 41.867188 97.414062 93.882812-3.917968 9.703126-6.890624 16.488282-9.042968 21.117188h-177.417969c-2.308594-4.140625-5.230469-9.59375-8.503906-16.183594.015625-.332031.050781-.660156.050781-1zm113.386719-326.445312c-.289063.289062-.589844.59375-.898438.910156-3.984375 4.117188-9.1875 4.839844-12.859375 4.730469-4.929687-.15625-8.890625-1.746094-11.78125-4.730469-.304687-.316406-.605468-.621094-.886718-.902344-21.558594-21.523437-50.363282-33.378906-81.105469-33.378906-12.445313 0-24.574219 2.046875-36.011719 5.871094 30.769531-37.589844 77.300781-60.714844 127.65625-60.863282 49.992188.148438 95.570312 22.351563 126.175781 58.796876-9.394531-2.488282-19.1875-3.804688-29.191406-3.804688-30.742187 0-59.546875 11.855469-81.097656 33.371094zm22.398437 86.394531c11.769532 4.421875 15.050782 19.515625 6.113282 28.367187l-26.605469 26.339844c-10.136719 10.035156-26.449219 10.035156-36.582031 0l-26.605469-26.339844c-8.941407-8.851562-5.65625-23.945312 6.109375-28.367187 10.929687-4.105469 24.636718-7.765625 38.785156-7.765625s27.855469 3.660156 38.785156 7.765625zm54.214844-39.765625c11.046875 0 20 8.953125 20 20s-8.953125 20-20 20-20-8.953125-20-20 8.953125-20 20-20zm-184 0c11.046875 0 20 8.953125 20 20s-8.953125 20-20 20-20-8.953125-20-20 8.953125-20 20-20zm0 0" fill="url(#a)"/></svg>